<?xml version="1.0" encoding="utf-8"?>
<!-- Uploaded to: SVG Repo, www.svgrepo.com, Generator: SVG Repo Mixer Tools -->
<svg xmlns="http://www.w3.org/2000/svg" xmlns:xlink="http://www.w3.org/1999/xlink" version="1.1" id="smalltv"  viewBox="0 0 224 228.1775" enable-background="new 0 0 224 228.1775" xml:space="preserve" width="512" height="512">
<g>
	<circle fill="#D0E8FF" cx="188" cy="152.1775" r="4"/>
	<circle fill="#D0E8FF" cx="188" cy="120.1775" r="4"/>
	<rect x="24" y="108.1775" fill="#5CB0FF" width="128" height="96"/>
	<path fill="#D0E8FF" d="M211.9922,92.1775H12.0078c-2.2109,0-4.0078,1.7949-4.0078,4v120c0,2.2051,1.7969,4,4.0078,4h199.9844   c2.2109,0,4.0078-1.7949,4.0078-4v-120C216,93.9724,214.2031,92.1775,211.9922,92.1775z M160,212.1775H16v-112h144V212.1775z    M188,164.1775c-6.6172,0-12-5.3828-12-12s5.3828-12,12-12s12,5.3828,12,12S194.6172,164.1775,188,164.1775z M188,132.1775   c-6.6172,0-12-5.3828-12-12s5.3828-12,12-12s12,5.3828,12,12S194.6172,132.1775,188,132.1775z"/>
	<path fill="#D0E8FF" d="M94,76.1775c-4.8306,0-8.8687,3.4414-9.7979,8h19.5957C102.8687,79.6189,98.8306,76.1775,94,76.1775z"/>
	<path fill="#1C71DA" d="M211.9922,84.1775H111.7979c-0.6614-5.8784-4.1199-10.8652-9.0554-13.6367l48.4451-63.9473   c1.3359-1.7617,0.9883-4.2695-0.7734-5.6035c-1.7656-1.3398-4.2734-0.9863-5.6016,0.7715l-50,66   c-0.1108,0.1465-0.1414,0.3198-0.2292,0.4751C94.385,68.2302,94.1997,68.1775,94,68.1775s-0.385,0.0527-0.5833,0.0591   c-0.0879-0.1553-0.1184-0.3286-0.2292-0.4751l-50-66c-1.332-1.7578-3.8398-2.1113-5.6016-0.7715   c-1.7617,1.334-2.1094,3.8418-0.7734,5.6035l48.4451,63.9473c-4.9355,2.7715-8.394,7.7583-9.0554,13.6367H12.0078   C5.3867,84.1775,0,89.5603,0,96.1775v120c0,6.6172,5.3867,12,12.0078,12h199.9844c6.6211,0,12.0078-5.3828,12.0078-12v-120   C224,89.5603,218.6133,84.1775,211.9922,84.1775z M94,76.1775c4.8306,0,8.8687,3.4414,9.7979,8H84.2021   C85.1313,79.6189,89.1694,76.1775,94,76.1775z M216,216.1775c0,2.2051-1.7969,4-4.0078,4H12.0078c-2.2109,0-4.0078-1.7949-4.0078-4   v-120c0-2.2051,1.7969-4,4.0078-4h199.9844c2.2109,0,4.0078,1.7949,4.0078,4V216.1775z"/>
	<path fill="#1C71DA" d="M16,212.1775h144v-112H16V212.1775z M24,108.1775h128v96H24V108.1775z"/>
	<path fill="#1C71DA" d="M188,108.1775c-6.6172,0-12,5.3828-12,12s5.3828,12,12,12s12-5.3828,12-12S194.6172,108.1775,188,108.1775z    M188,124.1775c-2.207,0-4-1.7949-4-4s1.793-4,4-4s4,1.7949,4,4S190.207,124.1775,188,124.1775z"/>
	<path fill="#1C71DA" d="M188,140.1775c-6.6172,0-12,5.3828-12,12s5.3828,12,12,12s12-5.3828,12-12S194.6172,140.1775,188,140.1775z    M188,156.1775c-2.207,0-4-1.7949-4-4s1.793-4,4-4s4,1.7949,4,4S190.207,156.1775,188,156.1775z"/>
</g>
<path fill="#FF5D5D" d="M180.252,68.0012c-1.0234,0-2.0469-0.3906-2.8281-1.1714c-1.5625-1.5625-1.5625-4.0952,0-5.6572  l14.1426-14.1421c1.5605-1.5615,4.0938-1.5615,5.6562,0c1.5625,1.5625,1.5625,4.0952,0,5.6572l-14.1426,14.1421  C182.2998,67.6106,181.2754,68.0012,180.252,68.0012z"/>
<path fill="#FF5D5D" d="M194.3945,67.9998c-1.0234,0-2.0479-0.3906-2.8281-1.1714l-14.1426-14.1426  c-1.5625-1.5625-1.5625-4.0947,0-5.6572c1.5605-1.5615,4.0957-1.5615,5.6562,0l14.1426,14.1426  c1.5625,1.5625,1.5625,4.0947,0,5.6572C196.4424,67.6091,195.418,67.9998,194.3945,67.9998z"/>
<path fill="#00D40B" d="M26.252,80.0012c-7.7197,0-14-6.2803-14-14s6.2803-14,14-14s14,6.2803,14,14S33.9717,80.0012,26.252,80.0012  z M26.252,60.0012c-3.3086,0-6,2.6914-6,6s2.6914,6,6,6s6-2.6914,6-6S29.5605,60.0012,26.252,60.0012z"/>
<path fill="#FFC504" d="M111.5664,30.6267c-1.0234,0-2.0469-0.3906-2.8281-1.1714L97.4238,18.1418  c-0.75-0.75-1.1719-1.7676-1.1719-2.8286s0.4219-2.0786,1.1719-2.8286l11.3145-11.3135c1.5625-1.5615,4.0938-1.5615,5.6562,0  l11.3135,11.3135c1.5625,1.5625,1.5625,4.0947,0,5.6572l-11.3135,11.3135C113.6143,30.2361,112.5898,30.6267,111.5664,30.6267z   M105.9092,15.3132l5.6572,5.6567l5.6562-5.6567l-5.6562-5.6567L105.9092,15.3132z"/>
</svg>