<?xml version="1.0" encoding="iso-8859-1"?>
<!-- Uploaded to: SVG Repo, www.svgrepo.com, Generator: SVG Repo Mixer Tools -->
<svg height="800px" width="800px" version="1.1" id="Layer_1" xmlns="http://www.w3.org/2000/svg" xmlns:xlink="http://www.w3.org/1999/xlink" 
	 viewBox="0 0 512.118 512.118" xml:space="preserve">
<g transform="translate(0 1)">
	<polygon style="fill:#DD3859;" points="366.992,152.718 145.126,152.718 179.259,101.518 332.859,101.518 	"/>
	<polygon style="fill:#E4667F;" points="341.392,152.718 153.659,152.718 187.792,101.518 307.259,101.518 	"/>
	<path style="fill:#FFA800;" d="M477.926,502.585H153.659c-14.507,0-25.6-11.947-25.6-25.6V178.318c0-14.507,11.947-25.6,25.6-25.6
		h324.267c14.507,0,25.6,11.093,25.6,25.6v298.667C503.526,490.638,491.579,502.585,477.926,502.585"/>
	<path style="fill:#FFFFFF;" d="M358.459,502.585H34.192c-14.507,0-25.6-11.947-25.6-25.6V178.318c0-14.507,11.947-25.6,25.6-25.6
		h324.267c14.507,0,25.6,11.093,25.6,25.6v298.667C384.059,490.638,372.112,502.585,358.459,502.585"/>
	<path style="fill:#FFE100;" d="M452.326,502.585H59.792c-14.507,0-25.6-11.947-25.6-25.6V178.318c0-14.507,11.947-25.6,25.6-25.6
		h392.533c14.507,0,25.6,11.093,25.6,25.6v298.667C477.926,490.638,465.979,502.585,452.326,502.585"/>
	<polygon style="fill:#00AD55;" points="51.259,459.918 349.926,459.918 349.926,195.385 51.259,195.385 	"/>
	<polygon style="fill:#00DA6C;" points="51.259,459.918 324.326,459.918 324.326,195.385 51.259,195.385 	"/>
	<g>
		<path style="fill:#63D3FD;" d="M460.859,229.518c0,18.773-15.36,34.133-34.133,34.133c-18.773,0-34.133-15.36-34.133-34.133
			s15.36-34.133,34.133-34.133C445.499,195.385,460.859,210.745,460.859,229.518"/>
		<path style="fill:#63D3FD;" d="M460.859,340.451c0,18.773-15.36,34.133-34.133,34.133c-18.773,0-34.133-15.36-34.133-34.133
			s15.36-34.133,34.133-34.133C445.499,306.318,460.859,321.678,460.859,340.451"/>
		<path style="fill:#63D3FD;" d="M455.739,459.918h-57.173c-3.413,0-5.12-2.56-5.12-5.12v-31.573c0-3.413,2.56-5.12,5.12-5.12
			h57.173c3.413,0,5.12,2.56,5.12,5.12v31.573C460.859,457.358,458.299,459.918,455.739,459.918"/>
	</g>
	<path d="M477.926,511.118H34.192c-18.773,0-34.133-15.36-34.133-34.133V178.318c0-18.773,15.36-34.133,34.133-34.133h443.733
		c18.773,0,34.133,15.36,34.133,34.133v298.667C512.059,495.758,496.699,511.118,477.926,511.118z M34.192,161.251
		c-9.387,0-17.067,7.68-17.067,17.067v298.667c0,9.387,7.68,17.067,17.067,17.067h443.733c9.387,0,17.067-7.68,17.067-17.067
		V178.318c0-9.387-7.68-17.067-17.067-17.067H34.192z"/>
	<path d="M349.926,468.451H51.259c-5.12,0-8.533-3.413-8.533-8.533V195.385c0-5.12,3.413-8.533,8.533-8.533h298.667
		c5.12,0,8.533,3.413,8.533,8.533v264.533C358.459,465.038,355.046,468.451,349.926,468.451z M59.792,451.385h281.6V203.918h-281.6
		V451.385z"/>
	<path d="M366.992,161.251H145.126c-3.413,0-5.973-1.707-7.68-4.267c-1.707-2.56-1.707-5.973,0-8.533l34.133-51.2
		c1.707-2.56,4.267-3.413,6.827-3.413h153.6c2.56,0,5.12,1.707,6.827,3.413l34.133,51.2c1.707,2.56,1.707,5.973,0,8.533
		C371.259,159.545,370.406,161.251,366.992,161.251z M161.339,144.185h190.293l-23.04-34.133H183.526L161.339,144.185z"/>
	<path d="M256.059,110.051c-2.56,0-5.12-0.853-6.827-3.413l-76.8-93.867c-2.56-3.413-2.56-9.387,0.853-11.947
		s9.387-2.56,11.947,0.853l76.8,93.867c2.56,3.413,2.56,9.387-0.853,11.947C259.472,109.198,257.766,110.051,256.059,110.051z"/>
	<path d="M256.059,110.051c-1.707,0-3.413-0.853-5.12-1.707c-3.413-2.56-4.267-8.533-0.853-11.947l76.8-93.867
		c3.413-3.413,8.533-4.267,11.947-0.853c3.413,2.56,4.267,8.533,0.853,11.947l-76.8,93.867
		C261.179,109.198,258.619,110.051,256.059,110.051z"/>
	<path d="M426.726,272.185c-23.893,0-42.667-18.773-42.667-42.667s18.773-42.667,42.667-42.667
		c23.893,0,42.667,18.773,42.667,42.667S450.619,272.185,426.726,272.185z M426.726,203.918c-14.507,0-25.6,11.093-25.6,25.6
		s11.093,25.6,25.6,25.6c14.507,0,25.6-11.093,25.6-25.6S441.232,203.918,426.726,203.918z"/>
	<path d="M426.726,238.051c-2.56,0-4.267-0.853-5.973-2.56c-3.413-3.413-3.413-8.533,0-11.947l23.893-23.893
		c3.413-3.413,8.533-3.413,11.947,0c3.413,3.413,3.413,8.533,0,11.947l-23.893,23.893
		C430.992,237.198,429.286,238.051,426.726,238.051z"/>
	<path d="M426.726,383.118c-23.893,0-42.667-18.773-42.667-42.667c0-23.893,18.773-42.667,42.667-42.667
		c23.893,0,42.667,18.773,42.667,42.667C469.392,364.345,450.619,383.118,426.726,383.118z M426.726,314.851
		c-14.507,0-25.6,11.093-25.6,25.6s11.093,25.6,25.6,25.6c14.507,0,25.6-11.093,25.6-25.6S441.232,314.851,426.726,314.851z"/>
	<path d="M426.726,383.118c-5.12,0-8.533-3.413-8.533-8.533v-34.133c0-5.12,3.413-8.533,8.533-8.533c5.12,0,8.533,3.413,8.533,8.533
		v34.133C435.259,379.705,431.846,383.118,426.726,383.118z"/>
	<path d="M455.739,468.451h-57.173c-7.68,0-13.653-5.973-13.653-13.653v-31.573c0-7.68,5.973-13.653,13.653-13.653h57.173
		c7.68,0,13.653,5.973,13.653,13.653v31.573C469.392,462.478,463.419,468.451,455.739,468.451z M401.126,451.385h51.2v-25.6h-51.2
		V451.385z"/>
	<path d="M85.392,272.185c-2.56,0-4.267-0.853-5.973-2.56c-3.413-3.413-3.413-8.533,0-11.947l34.133-34.133
		c3.413-3.413,8.533-3.413,11.947,0s3.413,8.533,0,11.947l-34.133,34.133C89.659,271.331,87.952,272.185,85.392,272.185z"/>
	<path d="M85.392,314.851c-2.56,0-4.267-0.853-5.973-2.56c-3.413-3.413-3.413-8.533,0-11.947l17.067-17.067
		c3.413-3.413,8.533-3.413,11.947,0s3.413,8.533,0,11.947l-17.067,17.067C89.659,313.998,87.952,314.851,85.392,314.851z"/>
	<path d="M136.592,263.651c-2.56,0-4.267-0.853-5.973-2.56c-3.413-3.413-3.413-8.533,0-11.947l25.6-25.6
		c3.413-3.413,8.533-3.413,11.947,0s3.413,8.533,0,11.947l-25.6,25.6C140.859,262.798,139.152,263.651,136.592,263.651z"/>
	<path d="M85.392,357.518c-2.56,0-4.267-0.853-5.973-2.56c-3.413-3.413-3.413-8.533,0-11.947l76.8-76.8
		c3.413-3.413,8.533-3.413,11.947,0s3.413,8.533,0,11.947l-76.8,76.8C89.659,356.665,87.952,357.518,85.392,357.518z"/>
	<path d="M196.326,246.585c-2.56,0-4.267-0.853-5.973-2.56c-3.413-3.413-3.413-8.533,0-11.947l8.533-8.533
		c3.413-3.413,8.533-3.413,11.947,0s3.413,8.533,0,11.947l-8.533,8.533C200.592,245.731,198.886,246.585,196.326,246.585z"/>
	<path d="M187.792,255.118c0,5.12-3.413,8.533-8.533,8.533c-5.12,0-8.533-3.413-8.533-8.533s3.413-8.533,8.533-8.533
		C184.379,246.585,187.792,249.998,187.792,255.118"/>
	<path d="M128.059,272.185c0,5.12-3.413,8.533-8.533,8.533s-8.533-3.413-8.533-8.533s3.413-8.533,8.533-8.533
		S128.059,267.065,128.059,272.185"/>
</g>
</svg>